PathFileType	4	(X/Y/Z)	markers
DataRate	CameraRate	NumFrames	NumMarkers	Units	OrigDataRate	OrigDataStartFrame	OrigNumFrames
200	200	6	39	mm	200	127	252
Frame#	Time	RASI			LASI			RPSI			LPSI			RTH1			RTH2			RTH3			RTH4			RLFC			RTB1			RTB2			RTB3			RTB4			RLMAL			RCAL			RTOE			RMT5			LTH1			LTH2			LTH3			LTH4			LLFC			LTB1			LTB2			LTB3			LTB4			LLMAL			LCAL			LTOE			LMT5			C7			T10			CLAV			RACR			LACR			RLEL			RFAradius			LLEL			LFAradius		
		X1	Y1	Z1	X2	Y2	Z2	X3	Y3	Z3	X4	Y4	Z4	X5	Y5	Z5	X6	Y6	Z6	X7	Y7	Z7	X8	Y8	Z8	X9	Y9	Z9	X10	Y10	Z10	X11	Y11	Z11	X12	Y12	Z12	X13	Y13	Z13	X14	Y14	Z14	X15	Y15	Z15	X16	Y16	Z16	X17	Y17	Z17	X18	Y18	Z18	X19	Y19	Z19	X20	Y20	Z20	X21	Y21	Z21	X22	Y22	Z22	X23	Y23	Z23	X24	Y24	Z24	X25	Y25	Z25	X26	Y26	Z26	X27	Y27	Z27	X28	Y28	Z28	X29	Y29	Z29	X30	Y30	Z30	X31	Y31	Z31	X32	Y32	Z32	X33	Y33	Z33	X34	Y34	Z34	X35	Y35	Z35	X36	Y36	Z36	X37	Y37	Z37	X38	Y38	Z38	X39	Y39	Z39
127	0.630000	1723.326384	960.575759	753.061271	1742.395633	979.447776	512.328526	1564.360363	1006.678845	661.999554	1567.470810	1009.289786	570.323347	1649.390081	700.210305	782.809860	1708.224623	689.133561	756.373110	1690.286570	590.361486	744.926638	1644.796884	593.650807	765.556151	1614.688049	465.771721	736.665016	1521.908353	378.330464	754.786358	1557.367533	352.771176	730.923518	1490.932295	272.943659	704.118104	1449.853846	308.463493	737.760933	1312.786675	163.090126	695.284185	1244.252546	165.785801	638.746533	1433.295880	61.792836	612.506145	1401.741157	63.111635	711.010250	1839.027859	780.256034	465.843630	1854.032313	805.487712	507.670343	1916.515061	731.254954	538.253778	1900.661578	694.251621	485.886985	1927.997386	574.319803	499.745187	1875.611839	501.269748	474.214556	1905.360500	469.694480	500.068642	1831.067046	398.751938	509.967849	1788.787512	436.410407	476.337823	1646.235584	276.115715	496.663051	1555.966557	287.464003	550.204784	1732.409557	148.646343	562.600854	1694.904114	172.399635	466.361065	1646.833261	1505.873915	642.983435	1564.176945	1314.582994	632.695576	1757.896863	1422.975508	649.966299	1704.937785	1468.126151	806.059270	1682.406938	1489.178289	464.958103	1657.420663	1134.457256	883.063242	1876.614062	1134.250134	764.104448	1504.928777	1211.448873	354.212844	1724.126122	1131.850147	449.324676
128	0.635000	1741.020664	963.634003	751.873841	1758.463774	984.681700	512.383518	1581.875170	1010.812190	663.381677	1584.197285	1013.529404	571.701092	1662.541053	703.854626	781.244934	1720.940982	692.213157	755.990479	1700.962833	593.221009	744.689649	1655.447211	597.706404	765.498889	1622.097638	470.331881	737.007106	1528.162680	385.591685	756.003116	1562.989080	357.769970	730.476154	1497.027904	278.171441	705.017762	1455.558052	314.311473	738.167952	1318.854640	168.844676	696.066368	1250.384156	173.613743	639.247797	1435.160576	61.742639	612.897421	1403.669578	63.875855	711.481130	1855.196436	785.690997	466.997603	1870.121561	811.211937	507.373697	1932.461233	736.829315	538.077796	1917.129910	699.739537	485.952898	1944.112321	578.925453	499.295222	1893.007079	502.814675	475.539012	1924.197239	473.796900	499.639844	1855.199591	398.086000	510.452869	1810.483181	433.848920	477.129518	1675.372978	267.093005	497.271488	1585.086322	275.434123	551.480350	1767.657491	144.331681	564.618585	1728.749839	165.350595	468.486346	1661.345411	1510.558713	642.088285	1579.832510	1318.734710	634.541907	1773.088385	1427.646376	649.003539	1721.437922	1473.573930	805.318325	1695.208169	1492.938431	465.331560	1677.927820	1140.051701	884.057182	1895.266634	1142.702910	761.281477	1514.770150	1217.673217	355.052578	1734.797353	1136.936980	446.559164
129	0.640000	1758.806658	966.707034	751.984702	1774.743715	989.784565	512.320525	1600.185767	1016.104706	666.340162	1600.834566	1017.435108	571.408009	1675.706471	707.103471	780.768734	1734.026801	694.913675	755.774378	1712.110670	596.357770	744.432211	1666.656486	601.310393	764.532762	1629.574794	474.973142	737.253450	1534.812052	391.519382	756.545097	1569.849290	363.364292	731.338253	1503.525419	284.202936	706.377133	1461.774164	320.911564	739.489115	1325.478829	175.439674	696.498045	1256.871351	180.826071	639.614856	1437.663675	62.037545	613.509873	1405.919756	65.395871	712.097270	1871.329459	791.029173	466.307232	1885.969197	816.192271	508.068392	1948.237130	742.137484	537.667697	1932.757917	704.697194	486.256494	1959.510543	583.321890	498.245609	1912.197175	502.820822	473.961262	1944.579607	476.164040	498.986401	1878.306292	398.956269	509.367998	1831.791267	431.714750	477.141836	1705.178595	257.758018	499.864228	1614.258922	262.049898	553.612102	1803.510049	140.416960	566.824115	1762.853355	158.859177	470.655647	1677.063353	1515.250968	642.305986	1596.497722	1321.264211	636.532772	1788.412428	1432.164660	647.300772	1738.661305	1478.962273	804.410657	1708.396063	1496.840506	465.191976	1698.132513	1145.304778	884.714398	1913.756354	1152.032802	759.507856	1525.182621	1223.755933	356.185334	1746.207756	1141.888196	444.306033
130	0.645000	1776.941321	969.343001	751.024466	1790.752812	994.554741	512.147578	1618.051014	1020.224560	667.533469	1617.886760	1021.781422	572.507048	1689.221269	711.531966	780.593251	1747.305123	697.435123	754.476619	1722.596650	600.603638	743.995006	1677.610154	606.027154	765.073957	1637.727698	480.170610	737.520595	1541.753294	397.830732	756.864214	1577.106783	371.044192	733.392605	1510.023307	289.946516	707.162965	1468.703288	327.040364	739.297183	1333.263284	181.533134	696.983720	1263.568281	188.654599	640.536295	1440.010046	62.858655	614.871533	1408.568303	67.091666	712.791918	1887.480006	796.146371	466.146557	1901.912479	821.296708	506.533269	1964.020754	746.685310	537.182260	1948.249197	709.508215	486.108510	1974.888675	586.918980	496.866765	1929.618491	504.195782	473.525936	1963.974069	479.203744	497.897307	1900.816298	397.289188	510.185272	1852.960713	429.102959	477.599576	1734.718609	249.103571	501.050579	1644.216325	249.448628	555.461511	1838.901111	137.125662	569.090835	1797.290647	152.161475	472.618782	1691.965775	1519.474320	641.904230	1611.500681	1324.785644	638.678419	1803.477465	1436.634952	646.638689	1755.052514	1484.184255	803.503449	1721.284472	1500.561550	465.382549	1718.466448	1150.851279	885.352110	1931.954334	1159.930575	757.180875	1536.004112	1229.979205	357.392254	1757.639543	1146.122169	442.306216
131	0.650000	1794.805184	972.545674	750.611620	1806.923988	999.407682	511.677951	1636.049928	1024.375499	668.469422	1634.661734	1026.319812	574.351299	1702.870621	716.200153	780.424483	1760.709326	700.265248	754.300271	1734.148752	603.245501	743.803329	1689.433839	610.010007	764.448630	1645.809928	485.742296	737.708568	1548.565642	403.105171	755.927501	1583.821802	375.009433	732.351816	1517.127318	295.783437	708.023858	1475.688672	333.078597	739.611087	1340.379252	188.278409	697.046649	1270.415573	195.608674	641.128961	1442.815927	63.203563	615.272531	1410.502912	68.575240	713.006762	1903.229686	799.945636	466.741908	1917.630755	825.975349	506.347224	1979.473863	750.520393	536.987607	1963.201549	713.701005	485.645400	1989.743481	590.222782	496.276953	1946.768586	504.890450	473.032933	1982.650107	482.207727	496.749233	1923.845058	398.243450	508.986126	1874.229534	425.636183	476.715856	1764.851889	241.041391	502.127492	1674.767739	236.535259	557.674966	1874.974156	134.140544	570.471094	1832.064553	146.512155	474.827276	1707.484356	1523.242798	642.305814	1627.603430	1328.204626	639.995334	1818.474723	1441.294386	645.776313	1772.048157	1489.391866	802.449456	1734.894714	1504.339027	465.236002	1738.464099	1156.749802	885.863828	1949.890085	1168.034849	754.865646	1545.839950	1236.111021	357.866069	1768.754546	1150.530648	439.923048
132	0.655000	1813.084373	975.292516	749.294248	1823.293844	1004.057481	511.173848	1653.941468	1028.287013	669.546314	1651.725758	1030.886451	574.672689	1716.776518	720.720783	779.971508	1774.154918	704.166882	754.520196	1745.516504	606.373445	742.445476	1700.707667	614.887536	764.188727	1654.545827	491.177095	737.785334	1556.741359	410.518820	757.480337	1592.048737	382.297682	733.918719	1524.735978	301.743916	708.988739	1483.295012	340.503439	740.960605	1347.519205	193.770476	697.075373	1276.692208	202.103086	641.131053	1445.359122	64.183783	615.718782	1412.120812	70.154721	713.063165	1918.598901	804.248916	464.942188	1933.229182	829.661086	505.761797	1994.559328	754.430857	536.760494	1978.467871	717.128716	485.059479	2003.511051	593.236216	494.624871	1963.664567	504.971663	472.476639	2000.877201	484.467705	495.918851	1945.818698	397.268569	508.186629	1895.215277	423.310524	476.619357	1794.551499	232.089756	504.195602	1705.380446	224.259843	558.922898	1910.657383	131.835476	572.521826	1866.204860	140.951605	476.844744	1722.192525	1527.116745	642.253339	1643.638928	1330.963920	641.735842	1833.830767	1445.795572	643.949863	1788.671201	1494.184470	801.374280	1748.454224	1507.786477	465.206641	1758.099507	1162.059853	886.588758	1967.942277	1175.645466	752.546390	1556.326058	1241.619986	359.358578	1779.981533	1154.847709	437.559302
